<?xml version="1.0" encoding="UTF-8"?>
<svg width="16px" height="16px" viewBox="0 0 16 16" version="1.1" xmlns="http://www.w3.org/2000/svg" xmlns:xlink="http://www.w3.org/1999/xlink">
    <title>s-surface-icon-cancel</title>
    <g id="页面-1" stroke="none" stroke-width="1" fill="none" fill-rule="evenodd" opacity="0.400000006">
        <g id="login-输入、语言选择" transform="translate(-731, -230)" fill="#848491">
            <g id="form" transform="translate(469, 88)">
                <g id="编组-2" transform="translate(28, 40)">
                    <g id="编组-16" transform="translate(0, 88)">
                        <g id="编组" transform="translate(234, 14)">
                            <path d="M8,1.5 C11.5897796,1.5 14.5,4.41022038 14.5,8 C14.5,11.5897796 11.5897796,14.5 8,14.5 C4.41022038,14.5 1.5,11.5897796 1.5,8 C1.5,4.41022038 4.41022038,1.5 8,1.5 Z M10.6263966,5.37360338 C10.3544243,5.10163111 9.91347016,5.10163111 9.64149788,5.37360338 L8,7.01388909 L6.35850212,5.37360338 C6.08652984,5.10163111 5.64557566,5.10163111 5.37360338,5.37360338 C5.10163111,5.64557566 5.10163111,6.08652984 5.37360338,6.35850212 L7.01500025,7.99888883 L5.37360338,9.64149788 C5.10163111,9.91347016 5.10163111,10.3544243 5.37360338,10.6263966 C5.64557566,10.8983689 6.08652984,10.8983689 6.35850212,10.6263966 L8,8.98388858 L9.64149788,10.6263966 C9.91347016,10.8983689 10.3544243,10.8983689 10.6263966,10.6263966 C10.8983689,10.3544243 10.8983689,9.91347016 10.6263966,9.64149788 L8.98499975,7.99888883 L10.6263966,6.35850212 C10.8983689,6.08652984 10.8983689,5.64557566 10.6263966,5.37360338 Z" id="形状"></path>
                        </g>
                    </g>
                </g>
            </g>
        </g>
    </g>
</svg>