<?xml version="1.0" encoding="UTF-8"?>
<svg width="16px" height="16px" viewBox="0 0 16 16" version="1.1" xmlns="http://www.w3.org/2000/svg" xmlns:xlink="http://www.w3.org/1999/xlink">
    <title>s-surface-icon-eye</title>
    <g id="页面-1" stroke="none" stroke-width="1" fill="none" fill-rule="evenodd">
        <g id="login-输入、语言选择" transform="translate(-755, -294)" fill="#848491">
            <g id="form" transform="translate(469, 88)">
                <g id="编组-2" transform="translate(28, 40)">
                    <g id="编组-16" transform="translate(0, 88)">
                        <g id="编组-7" transform="translate(0, 64)">
                            <g id="编组" transform="translate(258, 14)">
                                <path d="M8,3 C10.7614237,3 13.2614237,4.66666667 15.5,8 C13.2614237,11.3333333 10.7614237,13 8,13 C5.23857625,13 2.73857625,11.3333333 0.5,8 C2.73857625,4.66666667 5.23857625,3 8,3 Z M8,5 C6.34314575,5 5,6.34314575 5,8 C5,9.65685425 6.34314575,11 8,11 C9.65685425,11 11,9.65685425 11,8 C11,6.34314575 9.65685425,5 8,5 Z M8,6.6 C8.77319865,6.6 9.4,7.22680135 9.4,8 C9.4,8.77319865 8.77319865,9.4 8,9.4 C7.22680135,9.4 6.6,8.77319865 6.6,8 C6.6,7.22680135 7.22680135,6.6 8,6.6 Z" id="椭圆形-2"></path>
                            </g>
                        </g>
                    </g>
                </g>
            </g>
        </g>
    </g>
</svg>