<?xml version="1.0" encoding="UTF-8"?>
<svg width="16px" height="16px" viewBox="0 0 16 16" version="1.1" xmlns="http://www.w3.org/2000/svg" xmlns:xlink="http://www.w3.org/1999/xlink">
    <title>s-surface-icon-eye-close</title>
    <g id="页面-1" stroke="none" stroke-width="1" fill="none" fill-rule="evenodd">
        <g id="login-输入错误" transform="translate(-755, -294)">
            <g id="form" transform="translate(469, 88)">
                <g id="编组-2" transform="translate(28, 40)">
                    <g id="编组-16" transform="translate(0, 88)">
                        <g id="编组-7" transform="translate(0, 64)">
                            <g id="编组" transform="translate(258, 14)">
                                <path d="M1.82664442,6.25475566 L5.06187572,8.60911402 C5.34334908,9.97391483 6.55184702,11 8,11 C8.11047975,11 8.21956467,10.994028 8.32694954,10.9823892 L10.4585559,12.5329936 C9.6634546,12.8443312 8.84393596,13 8,13 C5.23857625,13 2.73857625,11.3333333 0.5,8 C0.9324584,7.35605142 1.37467321,6.7743033 1.82664442,6.25475566 Z M8,3 C10.7614237,3 13.2614237,4.66666667 15.5,8 C14.3786231,9.66977695 13.1916461,10.9213306 11.939069,11.7546611 L9.93230241,10.2949092 C10.5852119,9.74459621 11,8.92073758 11,8 C11,6.34314575 9.65685425,5 8,5 C6.74370392,5 5.66776845,5.77221554 5.2209627,6.8678775 L2.88464393,5.16833003 C4.47639203,3.72277668 6.18151072,3 8,3 Z M8,6.6 C8.77319865,6.6 9.4,7.22680135 9.4,8 C9.4,8.57844122 9.04919464,9.07494746 8.54872979,9.28837286 L6.60550073,7.87504087 C6.66871331,7.16038179 7.26891457,6.6 8,6.6 Z" id="椭圆形-2" fill="#848491"></path>
                                <line x1="1.71366699" y1="3.3933969" x2="13.8494042" y2="12.2172409" id="路径-9" stroke="#848491" stroke-width="1.5" stroke-linecap="round"></line>
                            </g>
                        </g>
                    </g>
                </g>
            </g>
        </g>
    </g>
</svg>