<?xml version="1.0" encoding="UTF-8"?>
<svg width="154px" height="154px" viewBox="0 0 154 154" version="1.1" xmlns="http://www.w3.org/2000/svg" xmlns:xlink="http://www.w3.org/1999/xlink">
    <title>empty-icon-login</title>
    <defs>
        <linearGradient x1="50%" y1="0%" x2="50%" y2="100%" id="linearGradient-1">
            <stop stop-color="#343646" offset="0%"></stop>
            <stop stop-color="#222328" stop-opacity="0.0237926136" offset="100%"></stop>
        </linearGradient>
        <linearGradient x1="50%" y1="0%" x2="50%" y2="99.1859703%" id="linearGradient-2">
            <stop stop-color="#77787E" stop-opacity="0.5" offset="0%"></stop>
            <stop stop-color="#424348" stop-opacity="0.183020105" offset="100%"></stop>
        </linearGradient>
        <circle id="path-3" cx="78" cy="76" r="50"></circle>
        <path d="M69.5110816,49 L84.4889184,49 C91.6210683,49 94.2073582,49.7426049 96.8147656,51.1370616 C99.422173,52.5315184 101.468482,54.577827 102.862938,57.1852344 C104.257395,59.7926418 105,62.3789317 105,69.5110816 L105,84.4889184 C105,91.6210683 104.257395,94.2073582 102.862938,96.8147656 C101.468482,99.422173 99.422173,101.468482 96.8147656,102.862938 C94.2073582,104.257395 91.6210683,105 84.4889184,105 L69.5110816,105 C62.3789317,105 59.7926418,104.257395 57.1852344,102.862938 C54.577827,101.468482 52.5315184,99.422173 51.1370616,96.8147656 C49.7426049,94.2073582 49,91.6210683 49,84.4889184 L49,69.5110816 C49,62.3789317 49.7426049,59.7926418 51.1370616,57.1852344 C52.5315184,54.577827 54.577827,52.5315184 57.1852344,51.1370616 C59.7926418,49.7426049 62.3789317,49 69.5110816,49 Z" id="path-4"></path>
        <linearGradient x1="50%" y1="-55.4889997%" x2="50%" y2="130.635714%" id="linearGradient-5">
            <stop stop-color="#77787E" offset="0%"></stop>
            <stop stop-color="#222328" stop-opacity="0" offset="100%"></stop>
        </linearGradient>
        <rect id="path-6" x="58" y="57" width="6" height="2" rx="1"></rect>
        <linearGradient x1="50%" y1="-55.4889997%" x2="50%" y2="130.635714%" id="linearGradient-7">
            <stop stop-color="#77787E" offset="0%"></stop>
            <stop stop-color="#222328" stop-opacity="0" offset="100%"></stop>
        </linearGradient>
        <path d="M77.5638654,61 C83.2865479,61 84.5885302,65.3041099 84.8122014,68.9206959 C85.3709478,68.8425161 85.7557136,69.0501166 85.9671606,69.5423381 C86.4498359,70.6659445 85.6254133,72.0359097 85.2657612,73.1804116 C85.0259931,73.943413 84.6591302,74.2691135 84.1651725,74.1575133 L84.0941479,74.2143708 C83.5092249,75.6146337 82.615359,76.9390763 81.5270747,77.9159351 C81.5860034,78.7826488 81.6990762,79.7868325 81.8359989,80.6077271 C84.1467352,80.8385331 85.7654949,81.0701156 86.6939983,81.3016982 C87.0298875,81.3855245 88.23934,82.7093048 90.322356,85.273039 C91.2669169,86.4311168 91.2114213,88.1076782 90.1947406,89.2029814 L88.0261319,91.5372282 C87.1764857,92.4517995 85.9851091,92.9723364 84.7367762,92.9744151 L69.3716418,93.0000018 C68.162507,93.0020153 67.0034333,92.51735 66.1556341,91.6552318 L63.8684304,89.3292966 C62.7690301,88.2112757 62.71606,86.4352012 63.7468773,85.2536482 C65.9638577,82.7097246 67.2085586,81.3923541 67.4811646,81.3016982 C68.2327891,81.0516181 70.1584373,80.801912 72.6611865,80.5518338 C72.8257606,79.546515 72.9546513,78.2793148 72.9932806,77.3258017 C72.1549867,76.4209185 71.4650416,75.313914 70.9909384,74.1575588 C70.9797457,74.1553273 70.9696009,74.1553596 70.9615363,74.1575133 C70.3296513,74.3262614 70.2205997,74.3249136 69.8609476,73.1804116 C69.5012955,72.0359097 68.676873,70.6659445 69.1595483,69.5423381 C69.3877577,69.0110959 69.7778134,68.8113898 70.3297155,68.9432199 C70.5648334,65.3231003 71.828572,61 77.5638654,61 Z" id="path-8"></path>
        <circle id="path-9" cx="12.5" cy="12.5" r="12.5"></circle>
        <linearGradient x1="50%" y1="-55.4889997%" x2="50%" y2="130.635714%" id="linearGradient-10">
            <stop stop-color="#77787E" offset="0%"></stop>
            <stop stop-color="#222328" stop-opacity="0" offset="100%"></stop>
        </linearGradient>
        <path d="M17,9 C18.1045695,9 19,9.8954305 19,11 L19,17 C19,18.1045695 18.1045695,19 17,19 L8,19 C6.8954305,19 6,18.1045695 6,17 L6,11 C6,9.8954305 6.8954305,9 8,9 L17,9 Z M12.5,12 C12.2238576,12 12,12.2238576 12,12.5 L12,15.5 C12,15.7761424 12.2238576,16 12.5,16 C12.7761424,16 13,15.7761424 13,15.5 L13,12.5 C13,12.2238576 12.7761424,12 12.5,12 Z" id="path-11"></path>
        <linearGradient x1="50%" y1="-55.4889997%" x2="50%" y2="130.635714%" id="linearGradient-12">
            <stop stop-color="#77787E" offset="0%"></stop>
            <stop stop-color="#222328" stop-opacity="0" offset="100%"></stop>
        </linearGradient>
        <path d="M12.5,4 C14.4329966,4 16,5.56700338 16,7.5 L16,9 L14.5,9 L14.5,7.5 C14.5,6.4456382 13.6841222,5.58183488 12.6492623,5.50548574 L12.5,5.5 C11.3954305,5.5 10.5,6.3954305 10.5,7.5 L10.5,9 L9,9 L9,7.5 C9,5.56700338 10.5670034,4 12.5,4 Z" id="path-13"></path>
    </defs>
    <g id="页面" stroke="none" stroke-width="1" fill="none" fill-rule="evenodd">
        <g id="深色规范" transform="translate(-44, -2487)">
            <g id="编组" transform="translate(-0, 834)">
                <g id="编组-3" transform="translate(44, 1653)">
                    <circle id="椭圆形备份" stroke="url(#linearGradient-2)" fill="url(#linearGradient-1)" opacity="0.100000001" cx="77" cy="77" r="62.5"></circle>
                    <g id="椭圆形" opacity="0.200000003">
                        <use fill="#181A26" xlink:href="#path-3"></use>
                        <circle stroke="url(#linearGradient-2)" stroke-width="1" stroke-linejoin="square" fill="url(#linearGradient-1)" cx="78" cy="76" r="49.5"></circle>
                    </g>
                    <g id="矩形">
                        <use fill="#181A26" xlink:href="#path-4"></use>
                        <path stroke="url(#linearGradient-2)" stroke-width="1" d="M84.4889184,49.5 C91.4794697,49.5 94.0214398,50.2101881 96.5789662,51.5779682 C99.0979505,52.9251358 101.074864,54.9020495 102.422032,57.4210338 C103.789812,59.9785602 104.5,62.5205303 104.5,69.5110816 L104.5,84.4889184 C104.5,91.4794697 103.789812,94.0214398 102.422032,96.5789662 C101.074864,99.0979505 99.0979505,101.074864 96.5789662,102.422032 C94.0214398,103.789812 91.4794697,104.5 84.4889184,104.5 L69.5110816,104.5 C62.5205303,104.5 59.9785602,103.789812 57.4210338,102.422032 C54.9020495,101.074864 52.9251358,99.0979505 51.5779682,96.5789662 C50.2101881,94.0214398 49.5,91.4794697 49.5,84.4889184 L49.5,69.5110816 C49.5,62.5205303 50.2101881,59.9785602 51.5779682,57.4210338 C52.9251358,54.9020495 54.9020495,52.9251358 57.4210338,51.5779682 C59.9785602,50.2101881 62.5205303,49.5 69.5110816,49.5 Z" stroke-linejoin="square" fill="url(#linearGradient-1)"></path>
                    </g>
                    <g id="矩形">
                        <use fill="url(#linearGradient-5)" xlink:href="#path-6"></use>
                        <use fill-opacity="0.5" fill="#575C6F" style="mix-blend-mode: color;" xlink:href="#path-6"></use>
                    </g>
                    <g id="形状结合">
                        <use fill="url(#linearGradient-7)" xlink:href="#path-8"></use>
                        <use fill-opacity="0.5" fill="#575C6F" style="mix-blend-mode: color;" xlink:href="#path-8"></use>
                    </g>
                    <g id="编组" transform="translate(82, 82)">
                        <g id="椭圆形">
                            <use fill="#181A26" xlink:href="#path-9"></use>
                            <circle stroke="url(#linearGradient-2)" stroke-width="1" stroke-linejoin="square" fill="url(#linearGradient-1)" cx="12.5" cy="12.5" r="12"></circle>
                        </g>
                        <g id="矩形-2">
                            <use fill="url(#linearGradient-10)" xlink:href="#path-11"></use>
                            <use fill-opacity="0.5" fill="#575C6F" style="mix-blend-mode: color;" xlink:href="#path-11"></use>
                        </g>
                        <g id="矩形-3">
                            <use fill="url(#linearGradient-12)" xlink:href="#path-13"></use>
                            <use fill-opacity="0.5" fill="#575C6F" style="mix-blend-mode: color;" xlink:href="#path-13"></use>
                        </g>
                    </g>
                    <circle id="椭圆形" fill="#51545F" opacity="0.5" cx="56" cy="41" r="1"></circle>
                    <circle id="椭圆形备份-5" fill="#51545F" opacity="0.5" cx="37" cy="39" r="1"></circle>
                    <circle id="椭圆形备份-6" fill="#51545F" opacity="0.5" cx="63.5" cy="23.5" r="1.5"></circle>
                    <path d="M107.5,39.5 L107.5,39.5 L107.5,39.5 C108.186287,37.9198381 108.117132,36.1133971 107.312045,34.5903288 L107,34 L107,34 L107.590329,34.3120451 C109.113397,35.1171321 110.919838,35.1862874 112.5,34.5 L112.5,34.5 L112.5,34.5 C111.813713,36.0801619 111.882868,37.8866029 112.687955,39.4096712 L113,40 L113,40 L112.409671,39.6879549 C110.886603,38.8828679 109.080162,38.8137126 107.5,39.5 Z" id="星形" fill="#51545F" opacity="0.5" transform="translate(110, 37) rotate(45) translate(-110, -37)"></path>
                </g>
            </g>
        </g>
    </g>
</svg>