<?xml version="1.0" encoding="UTF-8"?>
<svg width="16px" height="16px" viewBox="0 0 16 16" version="1.1" xmlns="http://www.w3.org/2000/svg" xmlns:xlink="http://www.w3.org/1999/xlink">
    <title>s-surface-icon-account</title>
    <g id="页面-1" stroke="none" stroke-width="1" fill="none" fill-rule="evenodd">
        <g id="login-输入、语言选择" transform="translate(-755, -230)" fill="#848491">
            <g id="form" transform="translate(469, 88)">
                <g id="编组-2" transform="translate(28, 40)">
                    <g id="编组-16" transform="translate(0, 88)">
                        <g id="编组" transform="translate(258, 14)">
                            <path d="M12.9,1.5 C13.7836556,1.5 14.5,2.21634441 14.5,3.10000002 L14.5,12.9 C14.5,13.7836556 13.7836556,14.5 12.9,14.5 L3.10000002,14.5 C2.21634441,14.5 1.5,13.7836556 1.5,12.9 L1.5,3.10000002 C1.5,2.21634441 2.21634441,1.5 3.10000002,1.5 L12.9,1.5 Z M11.25,11.8 L4.75,11.8 C4.33578644,11.8 4,12.1357864 4,12.55 C4,12.9642136 4.33578644,13.3 4.75,13.3 L11.25,13.3 C11.6642136,13.3 12,12.9642136 12,12.55 C12,12.1357864 11.6642136,11.8 11.25,11.8 Z M8.14143954,3 C6.69971733,3 6.38264026,4.08192339 6.32339699,4.98568052 C6.18500427,4.95296606 6.08717494,5.00293269 6.02990898,5.13558042 C5.90863991,5.41648149 6.11577077,5.75897213 6.20613104,6.04509707 C6.29649131,6.33122202 6.32388983,6.33155896 6.49079907,6.29107211 C6.609879,6.57931043 6.78292573,6.85509979 6.99314817,7.08042838 C6.9834761,7.31904563 6.95095434,7.63675127 6.90809142,7.88810635 C6.28006218,7.95057321 5.79690834,8.01294733 5.60822588,8.07541481 C5.54436254,8.09654759 5.26815229,8.34701537 4.77877013,8.82598316 C4.46507838,9.13591753 4.46170806,9.64136411 4.7712388,9.95545414 L5.25545334,10.4438177 C5.48114527,10.672185 5.78901308,10.8004725 6.11008656,10.7999405 L9.91568796,10.793635 C10.2472106,10.7930857 10.5637039,10.6552711 10.789947,10.4129457 L11.2482511,9.92178186 C11.5370184,9.61225588 11.5343416,9.13125275 11.2410114,8.82604344 C10.7824143,8.34512471 10.5138527,8.09491516 10.4353267,8.07541481 C10.2109734,8.01973484 9.82621683,7.96405488 9.28105697,7.90837491 L9.21486393,7.901 L9.18277741,7.68515659 C9.16303711,7.53356817 9.14716028,7.37341674 9.13753402,7.22865077 C9.41034324,6.98487055 9.63449752,6.65458773 9.78140353,6.30531755 L9.79997547,6.289372 C9.92407917,6.31727201 10.0162511,6.23584703 10.0764913,6.04509707 C10.1668516,5.75897213 10.3739824,5.41648149 10.2527134,5.13558042 C10.1996277,5.01261569 10.1030608,4.96070155 9.96262354,4.98156071 C9.9066765,4.07712905 9.57996386,3 8.14143954,3 Z" id="矩形-2"></path>
                        </g>
                    </g>
                </g>
            </g>
        </g>
    </g>
</svg>