<?xml version="1.0" encoding="UTF-8"?>
<svg width="16px" height="16px" viewBox="0 0 16 16" version="1.1" xmlns="http://www.w3.org/2000/svg" xmlns:xlink="http://www.w3.org/1999/xlink">
    <title>s-surface-icon-sms-code</title>
    <g id="页面-1" stroke="none" stroke-width="1" fill="none" fill-rule="evenodd">
        <g id="login-验证码登录" transform="translate(-755, -294)" fill="#848491">
            <g id="form" transform="translate(469, 88)">
                <g id="编组-2" transform="translate(28, 40)">
                    <g id="编组-16" transform="translate(0, 88)">
                        <g id="编组-7" transform="translate(0, 64)">
                            <g id="编组" transform="translate(258, 14)">
                                <path d="M8.00286667,1 L14,2.7945869 L14,6.47485518 C14,10.3430763 11.5834,13.7772003 8.00086667,15 C4.41736667,13.7772344 2,10.3423251 2,6.47314789 L2,2.7945869 L8.00286667,1 Z M5.5,6.5 C5.08578644,6.5 4.75,6.83578644 4.75,7.25 C4.75,7.66421356 5.08578644,8 5.5,8 C5.91421356,8 6.25,7.66421356 6.25,7.25 C6.25,6.83578644 5.91421356,6.5 5.5,6.5 Z M8,6.5 C7.58578644,6.5 7.25,6.83578644 7.25,7.25 C7.25,7.66421356 7.58578644,8 8,8 C8.41421356,8 8.75,7.66421356 8.75,7.25 C8.75,6.83578644 8.41421356,6.5 8,6.5 Z M10.5,6.5 C10.0857864,6.5 9.75,6.83578644 9.75,7.25 C9.75,7.66421356 10.0857864,8 10.5,8 C10.9142136,8 11.25,7.66421356 11.25,7.25 C11.25,6.83578644 10.9142136,6.5 10.5,6.5 Z" id="路径-2"></path>
                            </g>
                        </g>
                    </g>
                </g>
            </g>
        </g>
    </g>
</svg>