<?xml version="1.0" encoding="UTF-8"?>
<svg width="16px" height="16px" viewBox="0 0 16 16" version="1.1" xmlns="http://www.w3.org/2000/svg" xmlns:xlink="http://www.w3.org/1999/xlink">
    <title>s-surface-icon-phone</title>
    <g id="页面-1" stroke="none" stroke-width="1" fill="none" fill-rule="evenodd">
        <g id="login-验证码登录" transform="translate(-755, -230)" fill="#848491">
            <g id="form" transform="translate(469, 88)">
                <g id="编组-2" transform="translate(28, 40)">
                    <g id="编组-16" transform="translate(0, 88)">
                        <g id="编组" transform="translate(258, 14)">
                            <path d="M11.9,1 C12.7836556,1 13.5,1.71634441 13.5,2.60000002 L13.5,13.4 C13.5,14.2836556 12.7836556,15 11.9,15 L4.10000002,15 C3.21634441,15 2.5,14.2836556 2.5,13.4 L2.5,2.60000002 C2.5,1.71634441 3.21634441,1 4.10000002,1 L11.9,1 Z M10.25,12.5 L5.75,12.5 C5.33578644,12.5 5,12.8357864 5,13.25 C5,13.6642136 5.33578644,14 5.75,14 L10.25,14 C10.6642136,14 11,13.6642136 11,13.25 C11,12.8357864 10.6642136,12.5 10.25,12.5 Z M9.25,2 L6.75,2 C6.33578644,2 6,2.33578644 6,2.75 C6,3.16421356 6.33578644,3.5 6.75,3.5 L9.25,3.5 C9.66421356,3.5 10,3.16421356 10,2.75 C10,2.33578644 9.66421356,2 9.25,2 Z" id="矩形-2"></path>
                        </g>
                    </g>
                </g>
            </g>
        </g>
    </g>
</svg>